<?xml version="1.0" standalone="no"?>
<svg xmlns:xlink="http://www.w3.org/1999/xlink" id="wave" style="transform:rotate(0deg); transition: 0.3s" viewBox="0 0 1440 490" version="1.1" xmlns="http://www.w3.org/2000/svg"><defs><linearGradient id="sw-gradient-0" x1="0" x2="0" y1="1" y2="0"><stop stop-color="rgba(0, 255, 158.531, 0.39)" offset="0%"/><stop stop-color="rgba(9.659, 181.297, 254.597, 1)" offset="100%"/></linearGradient></defs><path style="transform:translate(0, 0px); opacity:1" fill="url(#sw-gradient-0)" d="M0,147L20,138.8C40,131,80,114,120,147C160,180,200,261,240,294C280,327,320,310,360,261.3C400,212,440,131,480,114.3C520,98,560,147,600,138.8C640,131,680,65,720,98C760,131,800,261,840,277.7C880,294,920,196,960,155.2C1000,114,1040,131,1080,130.7C1120,131,1160,114,1200,138.8C1240,163,1280,229,1320,228.7C1360,229,1400,163,1440,147C1480,131,1520,163,1560,204.2C1600,245,1640,294,1680,294C1720,294,1760,245,1800,187.8C1840,131,1880,65,1920,89.8C1960,114,2000,229,2040,269.5C2080,310,2120,278,2160,277.7C2200,278,2240,310,2280,343C2320,376,2360,408,2400,359.3C2440,310,2480,180,2520,138.8C2560,98,2600,147,2640,138.8C2680,131,2720,65,2760,89.8C2800,114,2840,229,2860,285.8L2880,343L2880,490L2860,490C2840,490,2800,490,2760,490C2720,490,2680,490,2640,490C2600,490,2560,490,2520,490C2480,490,2440,490,2400,490C2360,490,2320,490,2280,490C2240,490,2200,490,2160,490C2120,490,2080,490,2040,490C2000,490,1960,490,1920,490C1880,490,1840,490,1800,490C1760,490,1720,490,1680,490C1640,490,1600,490,1560,490C1520,490,1480,490,1440,490C1400,490,1360,490,1320,490C1280,490,1240,490,1200,490C1160,490,1120,490,1080,490C1040,490,1000,490,960,490C920,490,880,490,840,490C800,490,760,490,720,490C680,490,640,490,600,490C560,490,520,490,480,490C440,490,400,490,360,490C320,490,280,490,240,490C200,490,160,490,120,490C80,490,40,490,20,490L0,490Z"/></svg>